<?xml version="1.0" standalone="no"?>
<!DOCTYPE svg PUBLIC "-//W3C//DTD SVG 20010904//EN"
 "http://www.w3.org/TR/2001/REC-SVG-20010904/DTD/svg10.dtd">
<svg version="1.0" xmlns="http://www.w3.org/2000/svg"
 width="512.000000pt" height="512.000000pt" viewBox="0 0 512.000000 512.000000"
 preserveAspectRatio="xMidYMid meet">

<g transform="translate(0.000000,512.000000) scale(0.100000,-0.100000)"
fill="#000000" stroke="none">
<path d="M4057 4945 c-216 -291 -369 -551 -422 -718 -62 -194 -13 -404 130
-555 180 -191 444 -240 682 -127 145 70 267 221 308 380 19 76 19 191 -1 269
-17 66 -102 252 -161 350 -113 188 -383 566 -404 566 -5 0 -64 -74 -132 -165z
m211 -448 c106 -162 194 -345 200 -413 6 -72 -12 -130 -57 -190 -128 -170
-395 -135 -483 64 -16 34 -19 61 -16 113 3 60 11 83 70 201 64 127 193 338
206 338 4 0 40 -51 80 -113z"/>
<path d="M978 4637 c-292 -389 -496 -730 -589 -982 -32 -86 -33 -96 -33 -230
0 -125 3 -148 27 -220 108 -322 410 -530 746 -512 324 16 585 222 682 537 19
61 24 98 24 195 0 110 -3 128 -33 215 -64 183 -185 408 -369 683 -79 119 -267
377 -319 439 l-22 28 -114 -153z m270 -579 c163 -257 259 -449 283 -567 25
-121 -19 -259 -116 -360 -162 -169 -413 -188 -602 -44 -94 72 -163 214 -163
337 0 134 113 369 347 724 l95 143 39 -55 c22 -31 75 -111 117 -178z"/>
<path d="M2713 3648 c-315 -413 -656 -924 -862 -1291 -276 -493 -392 -830
-377 -1095 20 -341 148 -627 390 -868 159 -159 317 -258 514 -324 155 -51 241
-65 422 -65 181 0 267 14 422 65 366 122 675 417 813 775 67 175 103 382 90
534 -26 326 -242 796 -678 1471 -200 311 -624 900 -647 900 -5 0 -44 -46 -87
-102z m142 -460 c218 -312 281 -406 387 -572 299 -470 491 -851 560 -1108 42
-159 25 -372 -43 -548 -173 -448 -651 -724 -1119 -645 -226 37 -404 128 -566
290 -135 133 -222 286 -271 473 -36 137 -38 311 -5 432 75 277 307 723 638
1228 127 194 356 522 364 522 3 -1 28 -33 55 -72z"/>
</g>
</svg>
